<svg width="20" height="20" viewBox="0 0 20 20" fill="none" xmlns="http://www.w3.org/2000/svg">
<path d="M13.333 6.66667C13.333 7.55072 12.9818 8.39857 12.3567 9.02369C11.7316 9.64881 10.8838 10 9.9997 10C9.11564 10 8.2678 9.64881 7.64267 9.02369C7.01755 8.39857 6.66636 7.55072 6.66636 6.66667M3.02738 6.16782L2.44405 13.1678C2.31873 14.6716 2.25608 15.4235 2.51027 16.0035C2.7336 16.5131 3.12056 16.9336 3.60985 17.1985C4.16676 17.5 4.92125 17.5 6.43023 17.5H13.5692C15.0781 17.5 15.8326 17.5 16.3895 17.1985C16.8788 16.9336 17.2658 16.5131 17.4891 16.0035C17.7433 15.4235 17.6807 14.6716 17.5553 13.1678L16.972 6.16782C16.8642 4.87396 16.8103 4.22703 16.5238 3.73738C16.2714 3.3062 15.8957 2.9605 15.4451 2.74487C14.9334 2.5 14.2842 2.5 12.9858 2.5L7.01356 2.5C5.71522 2.5 5.06604 2.5 4.55429 2.74487C4.10365 2.9605 3.72795 3.3062 3.47564 3.73738C3.18911 4.22703 3.1352 4.87396 3.02738 6.16782Z" stroke="white" stroke-width="2" stroke-linecap="round" stroke-linejoin="round"/>
</svg>
