<svg width="20" height="20" viewBox="0 0 20 20" fill="none" xmlns="http://www.w3.org/2000/svg">
<g clip-path="url(#clip0_28_902)">
<path d="M1.66669 10.0001L9.70188 14.0177C9.8112 14.0723 9.86586 14.0997 9.92319 14.1104C9.97397 14.12 10.0261 14.12 10.0769 14.1104C10.1342 14.0997 10.1888 14.0723 10.2982 14.0177L18.3334 10.0001M1.66669 14.1668L9.70188 18.1844C9.8112 18.239 9.86586 18.2663 9.92319 18.2771C9.97397 18.2866 10.0261 18.2866 10.0769 18.2771C10.1342 18.2663 10.1888 18.239 10.2982 18.1844L18.3334 14.1668M1.66669 5.83343L9.70188 1.81583C9.8112 1.76117 9.86586 1.73384 9.92319 1.72309C9.97397 1.71356 10.0261 1.71356 10.0769 1.72309C10.1342 1.73384 10.1888 1.76117 10.2982 1.81583L18.3334 5.83343L10.2982 9.85102C10.1888 9.90568 10.1342 9.93301 10.0769 9.94377C10.0261 9.9533 9.97397 9.9533 9.92319 9.94377C9.86586 9.93301 9.8112 9.90568 9.70188 9.85102L1.66669 5.83343Z" stroke="white" stroke-width="2" stroke-linecap="round" stroke-linejoin="round"/>
</g>
<defs>
<clipPath id="clip0_28_902">
<rect width="20" height="20" fill="white"/>
</clipPath>
</defs>
</svg>
