<svg width="20" height="20" viewBox="0 0 20 20" fill="none" xmlns="http://www.w3.org/2000/svg">
<path d="M17.0833 6.0649L9.99997 10.0001M9.99997 10.0001L2.91664 6.0649M9.99997 10.0001L10 17.9168M11.6667 17.4075L10.6475 17.9737C10.4112 18.105 10.293 18.1707 10.1679 18.1964C10.0571 18.2192 9.94288 18.2192 9.83213 18.1964C9.70698 18.1707 9.58881 18.105 9.35248 17.9737L3.18581 14.5478C2.93621 14.4091 2.8114 14.3398 2.72053 14.2412C2.64013 14.1539 2.57929 14.0505 2.54207 13.9379C2.5 13.8105 2.5 13.6678 2.5 13.3822V6.61798C2.5 6.33245 2.5 6.18968 2.54207 6.06235C2.57929 5.9497 2.64013 5.8463 2.72053 5.75906C2.8114 5.66044 2.93621 5.59111 3.18581 5.45244L9.35248 2.02651C9.58881 1.89522 9.70698 1.82957 9.83213 1.80383C9.94288 1.78105 10.0571 1.78105 10.1679 1.80383C10.293 1.82957 10.4112 1.89521 10.6475 2.02651L16.8142 5.45244C17.0638 5.59111 17.1886 5.66044 17.2795 5.75906C17.3599 5.8463 17.4207 5.9497 17.4579 6.06235C17.5 6.18968 17.5 6.33245 17.5 6.61798L17.5 10.4168M6.25 3.75011L13.75 7.91678M13.3333 15.0001L15 16.6668L18.3333 13.3334" stroke="white" stroke-width="2" stroke-linecap="round" stroke-linejoin="round"/>
</svg>
