<svg width="20" height="20" viewBox="0 0 20 20" fill="none" xmlns="http://www.w3.org/2000/svg">
<g clip-path="url(#clip0_28_1354)">
<path d="M12.0833 4.58334L13.3333 5.83334M9.58334 7.08334L10.8333 8.33334M7.08334 9.58334L8.33334 10.8333M4.58334 12.0833L5.83334 13.3333M2.13805 14.6381L5.36191 17.862C5.52691 18.027 5.60942 18.1095 5.70455 18.1404C5.78824 18.1676 5.87838 18.1676 5.96207 18.1404C6.05721 18.1095 6.13971 18.027 6.30472 17.862L17.8619 6.30478C18.0269 6.13977 18.1094 6.05727 18.1403 5.96213C18.1675 5.87844 18.1675 5.7883 18.1403 5.70462C18.1094 5.60948 18.0269 5.52697 17.8619 5.36197L14.638 2.13811C14.473 1.9731 14.3905 1.8906 14.2954 1.85969C14.2117 1.8325 14.1216 1.8325 14.0379 1.85969C13.9428 1.8906 13.8602 1.9731 13.6952 2.13811L2.13805 13.6953C1.97304 13.8603 1.89054 13.9428 1.85963 14.0379C1.83244 14.1216 1.83244 14.2118 1.85963 14.2955C1.89054 14.3906 1.97304 14.4731 2.13805 14.6381Z" stroke="#1A1A1A" stroke-width="2" stroke-linecap="round" stroke-linejoin="round"/>
</g>
<defs>
<clipPath id="clip0_28_1354">
<rect width="20" height="20" fill="white"/>
</clipPath>
</defs>
</svg>
