<svg width="20" height="20" viewBox="0 0 20 20" fill="none" xmlns="http://www.w3.org/2000/svg">
<path d="M13.3334 13.3333V5.16667C13.3334 4.23325 13.3334 3.76654 13.1517 3.41002C12.9919 3.09641 12.7369 2.84144 12.4233 2.68166C12.0668 2.5 11.6001 2.5 10.6667 2.5H4.33335C3.39993 2.5 2.93322 2.5 2.5767 2.68166C2.2631 2.84144 2.00813 3.09641 1.84834 3.41002C1.66669 3.76654 1.66669 4.23325 1.66669 5.16667V10.6667C1.66669 11.6001 1.66669 12.0668 1.84834 12.4233C2.00813 12.7369 2.2631 12.9919 2.5767 13.1517C2.93322 13.3333 3.39993 13.3333 4.33335 13.3333H13.3334ZM13.3334 13.3333H17C17.4667 13.3333 17.7001 13.3333 17.8783 13.2425C18.0351 13.1626 18.1626 13.0351 18.2425 12.8783C18.3334 12.7001 18.3334 12.4667 18.3334 12V9.71895C18.3334 9.51513 18.3334 9.41321 18.3103 9.31731C18.2899 9.23228 18.2562 9.15099 18.2106 9.07643C18.159 8.99233 18.087 8.92027 17.9428 8.77614L16.2239 7.05719C16.0798 6.91306 16.0077 6.841 15.9236 6.78947C15.849 6.74378 15.7677 6.71011 15.6827 6.68969C15.5868 6.66667 15.4849 6.66667 15.2811 6.66667H13.3334M7.50002 15.4167C7.50002 16.5673 6.56728 17.5 5.41669 17.5C4.26609 17.5 3.33335 16.5673 3.33335 15.4167C3.33335 14.2661 4.26609 13.3333 5.41669 13.3333C6.56728 13.3333 7.50002 14.2661 7.50002 15.4167ZM16.6667 15.4167C16.6667 16.5673 15.7339 17.5 14.5834 17.5C13.4328 17.5 12.5 16.5673 12.5 15.4167C12.5 14.2661 13.4328 13.3333 14.5834 13.3333C15.7339 13.3333 16.6667 14.2661 16.6667 15.4167Z" stroke="white" stroke-width="2" stroke-linecap="round" stroke-linejoin="round"/>
</svg>
