<svg width="16" height="17" viewBox="0 0 16 17" fill="none" xmlns="http://www.w3.org/2000/svg">
<path d="M14.3335 16C14.3335 14.837 14.3335 14.2555 14.1899 13.7824C13.8668 12.717 13.0331 11.8834 11.9677 11.5602C11.4946 11.4167 10.9131 11.4167 9.75012 11.4167H5.58346C4.42049 11.4167 3.839 11.4167 3.36584 11.5602C2.3005 11.8834 1.46682 12.717 1.14366 13.7824C1.00012 14.2555 1.00012 14.837 1.00012 16M11.4168 4.75C11.4168 6.82107 9.73786 8.5 7.66679 8.5C5.59572 8.5 3.91679 6.82107 3.91679 4.75C3.91679 2.67893 5.59572 1 7.66679 1C9.73786 1 11.4168 2.67893 11.4168 4.75Z" stroke="white" stroke-width="2" stroke-linecap="round" stroke-linejoin="round"/>
</svg>
