<svg width="19" height="19" viewBox="0 0 19 19" fill="none" xmlns="http://www.w3.org/2000/svg">
<path d="M9.33333 1C11.4177 3.28196 12.6023 6.24336 12.6667 9.33333C12.6023 12.4233 11.4177 15.3847 9.33333 17.6667M9.33333 1C7.24893 3.28196 6.06437 6.24336 6 9.33333C6.06437 12.4233 7.24893 15.3847 9.33333 17.6667M9.33333 1C4.73096 1 1 4.73096 1 9.33333C1 13.9357 4.73096 17.6667 9.33333 17.6667M9.33333 1C13.9357 1 17.6667 4.73096 17.6667 9.33333C17.6667 13.9357 13.9357 17.6667 9.33333 17.6667M1.41668 6.83333H17.25M1.41667 11.8333H17.25" stroke="white" stroke-width="2" stroke-linecap="round" stroke-linejoin="round"/>
</svg>
